<svg width="16" height="16" viewBox="0 0 16 16" fill="none" xmlns="http://www.w3.org/2000/svg">
<path d="M9.38006 12.1559C9.26447 12.1559 9.14887 12.1134 9.05762 12.0221C8.88119 11.8457 8.88119 11.5536 9.05762 11.3772L12.4281 8.00678L9.05762 4.63634C8.88119 4.45991 8.88119 4.16788 9.05762 3.99145C9.23405 3.81502 9.52607 3.81502 9.7025 3.99145L13.3954 7.68433C13.5718 7.86076 13.5718 8.15279 13.3954 8.32922L9.7025 12.0221C9.61124 12.1134 9.49565 12.1559 9.38006 12.1559Z" fill="white"/>
<path d="M12.9695 8.46299H2.73046C2.48102 8.46299 2.27417 8.25614 2.27417 8.0067C2.27417 7.75726 2.48102 7.55042 2.73046 7.55042H12.9695C13.219 7.55042 13.4258 7.75726 13.4258 8.0067C13.4258 8.25614 13.219 8.46299 12.9695 8.46299Z" fill="white"/>
</svg>
