<svg width="30" height="33" viewBox="0 0 30 33" fill="none" xmlns="http://www.w3.org/2000/svg">
<path fill-rule="evenodd" clip-rule="evenodd" d="M19.9624 30.7953C22.827 29.9882 25.8261 29.581 28.7354 29.208C29.362 29.1298 29.9438 29.5662 29.9886 30.181C30.0781 30.7962 29.6302 31.3588 29.0484 31.437C26.2286 31.7961 23.3195 32.1803 20.5892 32.9573C20.0073 33.1258 19.3805 32.7789 19.2014 32.1821C19.0224 31.5857 19.3805 30.9642 19.9624 30.7953Z" fill="#0A1A1F"/>
<path fill-rule="evenodd" clip-rule="evenodd" d="M11.2796 19.3529C15.8898 14.6294 21.0818 10.5139 25.6025 5.66367C26.0053 5.21069 26.7214 5.18642 27.169 5.60929C27.6166 6.03261 27.6612 6.74444 27.2136 7.19742C22.693 12.0616 17.5009 16.1905 12.8908 20.928C12.4432 21.3702 11.7272 21.3765 11.2796 20.9415C10.8768 20.5069 10.832 19.7951 11.2796 19.3529Z" fill="#0A1A1F"/>
<path fill-rule="evenodd" clip-rule="evenodd" d="M2.6406 1.18447C2.50632 3.88798 2.37231 6.59149 2.23803 9.29545C2.23803 9.9147 1.70067 10.3929 1.07404 10.3627C0.447418 10.3322 9.20296e-05 9.80506 9.20296e-05 9.18535C0.134368 6.47735 0.268383 3.76979 0.402659 1.06224C0.447418 0.442986 0.984612 -0.0320157 1.61124 0.00168827C2.1931 0.0353923 2.68536 0.56567 2.6406 1.18447Z" fill="#0A1A1F"/>
</svg>
